<svg xmlns="http://www.w3.org/2000/svg" xmlns:svg="http://www.w3.org/2000/svg" width="350" height="350" version="1.1">
	<path style="fill:#57af00;fill-opacity:0.35;stroke:none;" d="m 23,120 c 3.46,-2.81 5.29,-4.77 22.76,-18.1 17.46,-13.33 77.14,-58.06 84.22,-62.24 7.08,-4.18 12,-6.35 20.47,-9.41 8.47,-3.05 14.53,-2.66 18.46,-1.33 3.93,1.33 8.65,4.36 11.1,8.85 2.45,4.49 2.29,6.44 2.37,15.68 0.08,9.24 -0.17,29.34 0.23,39.25 0.4,9.91 1.27,16.37 4.84,22.18 3.57,5.81 6.66,7.96 10.06,10.11 3.5,2.15 12.2,6.45 22.5,7.87 10.3,1.42 23.5,-5.05 35.2,-8.55 11.7,-3.5 23.9,-9.6 35.2,-12.26 11.3,-2.66 22.8,-3.65 32,-3.89 9.3,-0.24 16.7,0.76 22.1,3.01 5.4,2.25 7.5,4.74 7.5,6.52 -5.1,-1.17 -21.8,-1.11 -29.2,0 -7.4,1.11 -19.4,5.6 -28.4,9.14 -9,3.54 -16.9,7.45 -25.7,11.73 -8.7,4.28 -19.9,10.46 -26.7,13.6 -6.8,3.14 -8.1,3.87 -14.1,5.54 -5.9,1.67 -14.8,3.4 -21.9,3.14 -7,-0.25 -10,-0.84 -17.02,-3.23 -7.01,-2.39 -14.59,-8.16 -20.08,-14.08 -5.49,-5.92 -8.5,-12.52 -10.71,-19.56 -2.21,-7.04 -3.44,-13.7 -3.67,-21.99 -0.23,-8.29 0.48,-9.66 -1.35,-15.89 -1.83,-6.23 -3.21,-6.92 -6.74,-9.41 -3.53,-2.49 -8.06,-3.63 -12.24,-3.95 -4.18,-0.31 -8.61,0.43 -13.37,2.59 -4.76,2.17 -8.88,5.87 -14.53,10.47 -5.65,4.6 -13.14,11.68 -18.73,15.91 -5.59,4.23 -9.66,7 -14.81,10.06 -5.16,3.06 -11.26,6.95 -15.82,8.78 -4.56,1.83 -9.34,2.6 -14.14,2.9 -4.79,0.29 -7.89,0.23 -11.53,-0.55 C 27.63,122.11 26.41,121.52 23,120 Z"/>
	<path style="fill:#ffa74f;fill-opacity:0.35;stroke:none;" d="m 23,215 c 3.46,-2.81 5.29,-4.77 22.76,-18.1 17.46,-13.33 77.14,-58.06 84.22,-62.24 7.08,-4.18 12,-6.35 20.47,-9.41 8.47,-3.05 14.53,-2.66 18.46,-1.33 3.93,1.33 8.65,4.36 11.1,8.85 2.45,4.49 2.29,6.44 2.37,15.68 0.08,9.24 -0.17,29.34 0.23,39.25 0.4,9.91 1.27,16.37 4.84,22.18 3.57,5.81 6.66,7.96 10.06,10.11 3.5,2.15 12.2,6.45 22.5,7.87 10.3,1.42 23.5,-5.05 35.2,-8.55 11.7,-3.5 23.9,-9.6 35.2,-12.26 11.3,-2.66 22.8,-3.65 32,-3.89 9.3,-0.24 16.7,0.76 22.1,3.01 5.4,2.25 7.5,4.74 7.5,6.52 -5.1,-1.17 -21.8,-1.11 -29.2,0 -7.4,1.11 -19.4,5.6 -28.4,9.14 -9,3.54 -16.9,7.45 -25.7,11.73 -8.7,4.28 -19.9,10.46 -26.7,13.6 -6.8,3.14 -8.1,3.87 -14.1,5.54 -5.9,1.67 -14.8,3.4 -21.9,3.14 -7,-0.25 -10,-0.84 -17.02,-3.23 -7.01,-2.39 -14.59,-8.16 -20.08,-14.08 -5.49,-5.92 -8.5,-12.52 -10.71,-19.56 -2.21,-7.04 -3.44,-13.7 -3.67,-21.99 -0.23,-8.29 0.48,-9.66 -1.35,-15.89 -1.83,-6.23 -3.21,-6.92 -6.74,-9.41 -3.53,-2.49 -8.06,-3.63 -12.24,-3.95 -4.18,-0.31 -8.61,0.43 -13.37,2.59 -4.76,2.17 -8.88,5.87 -14.53,10.47 -5.65,4.6 -13.14,11.68 -18.73,15.91 -5.59,4.23 -9.66,7 -14.81,10.06 -5.16,3.06 -11.26,6.95 -15.82,8.78 -4.56,1.83 -9.34,2.6 -14.14,2.9 -4.79,0.29 -7.89,0.23 -11.53,-0.55 C 27.63,217.11 26.41,216.52 23,215 Z"/>
	<path style="fill:#0072e4;fill-opacity:0.35;stroke:none;" d="m 23,310 c 3.452,-2.81 5.287,-4.77 22.751,-18.1 17.464,-13.33 77.145,-58.06 84.225,-62.24 7.08,-4.18 12,-6.35 20.47,-9.41 8.47,-3.05 14.53,-2.66 18.46,-1.33 3.93,1.33 8.65,4.36 11.1,8.85 2.45,4.49 2.29,6.44 2.37,15.68 0.08,9.24 -0.17,29.34 0.23,39.25 0.4,9.91 1.27,16.37 4.84,22.18 3.57,5.81 6.65,7.96 10.11,10.11 3.46,2.15 12.19,6.45 22.47,7.87 10.28,1.42 23.44,-5.05 35.18,-8.55 11.74,-3.5 23.95,-9.6 35.23,-12.26 11.28,-2.66 22.73,-3.65 32.02,-3.89 9.29,-0.24 16.64,0.76 22.03,3.01 5.39,2.25 7.52,4.74 7.57,6.52 -5.15,-1.17 -21.82,-1.11 -29.22,0 -7.4,1.11 -19.4,5.6 -28.41,9.14 -9.01,3.54 -16.96,7.45 -25.67,11.73 -8.71,4.28 -19.91,10.46 -26.75,13.6 -6.84,3.14 -8.13,3.87 -14.07,5.54 -5.94,1.67 -14.84,3.4 -21.89,3.14 -7.04,-0.25 -10.05,-0.84 -17.06,-3.23 -7.01,-2.39 -14.59,-8.16 -20.08,-14.08 -5.49,-5.92 -8.5,-12.52 -10.71,-19.56 -2.21,-7.04 -3.44,-13.7 -3.67,-21.99 -0.23,-8.29 0.48,-9.66 -1.35,-15.89 -1.83,-6.23 -3.21,-6.92 -6.74,-9.41 -3.53,-2.49 -8.06,-3.63 -12.24,-3.95 -4.18,-0.31 -8.61,0.43 -13.37,2.59 -4.76,2.17 -8.88,5.87 -14.53,10.47 -5.65,4.6 -13.136,11.68 -18.73,15.91 -5.594,4.23 -9.659,7 -14.815,10.06 -5.156,3.06 -11.255,6.95 -15.817,8.78 -4.562,1.83 -9.337,2.6 -14.133,2.9 -4.797,0.29 -7.893,0.23 -11.535,-0.55 C 27.624,312.11 26.402,311.52 23,310 Z"/>
	<path style="fill:#57af00;fill-opacity:1;stroke:none;" d="m 0,105 c 3.46,-2.81 5.29,-4.77 22.76,-18.1 17.46,-13.33 77.14,-58.06 84.22,-62.24 7.08,-4.18 12,-6.35 20.47,-9.41 8.47,-3.05 14.53,-2.66 18.46,-1.33 3.93,1.33 8.65,4.36 11.1,8.85 2.45,4.49 2.29,6.44 2.37,15.68 0.08,9.24 -0.17,29.34 0.23,39.25 0.4,9.91 1.27,16.37 4.84,22.18 3.57,5.81 6.66,7.96 10.06,10.11 3.5,2.15 12.2,6.45 22.5,7.87 10.3,1.42 23.5,-5.05 35.2,-8.55 11.7,-3.5 23.9,-9.6 35.2,-12.26 11.3,-2.66 22.8,-3.65 32,-3.89 9.3,-0.24 16.7,0.76 22.1,3.01 5.4,2.25 7.5,4.74 7.5,6.52 -5.1,-1.17 -21.8,-1.11 -29.2,0 -7.4,1.11 -19.4,5.6 -28.4,9.14 -9,3.54 -16.9,7.45 -25.7,11.73 -8.7,4.28 -19.9,10.46 -26.7,13.6 -6.8,3.14 -8.1,3.87 -14.1,5.54 -5.9,1.67 -14.8,3.4 -21.9,3.14 -7,-0.25 -10,-0.84 -17.02,-3.23 -7.01,-2.39 -14.59,-8.16 -20.08,-14.08 -5.49,-5.92 -8.5,-12.52 -10.71,-19.56 -2.21,-7.04 -3.44,-13.7 -3.67,-21.99 -0.23,-8.29 0.48,-9.66 -1.35,-15.89 -1.83,-6.23 -3.21,-6.92 -6.74,-9.41 -3.53,-2.49 -8.06,-3.63 -12.24,-3.95 -4.18,-0.31 -8.61,0.43 -13.37,2.59 -4.76,2.17 -8.88,5.87 -14.53,10.47 -5.65,4.6 -13.14,11.68 -18.73,15.91 -5.59,4.23 -9.66,7 -14.81,10.06 -5.16,3.06 -11.26,6.95 -15.82,8.78 -4.56,1.83 -9.34,2.6 -14.14,2.9 -4.79,0.29 -7.89,0.23 -11.53,-0.55 C 4.63,107.11 3.41,106.52 0,105 Z"/>
	<path style="fill:#ffa74f;fill-opacity:1;stroke:none;" d="m 0,200 c 3.46,-2.81 5.29,-4.77 22.76,-18.1 17.46,-13.33 77.14,-58.06 84.22,-62.24 7.08,-4.18 12,-6.35 20.47,-9.41 8.47,-3.05 14.53,-2.66 18.46,-1.33 3.93,1.33 8.65,4.36 11.1,8.85 2.45,4.49 2.29,6.44 2.37,15.68 0.08,9.24 -0.17,29.34 0.23,39.25 0.4,9.91 1.27,16.37 4.84,22.18 3.57,5.81 6.66,7.96 10.06,10.11 3.5,2.15 12.2,6.45 22.5,7.87 10.3,1.42 23.5,-5.05 35.2,-8.55 11.7,-3.5 23.9,-9.6 35.2,-12.26 11.3,-2.66 22.8,-3.65 32,-3.89 9.3,-0.24 16.7,0.76 22.1,3.01 5.4,2.25 7.5,4.74 7.5,6.52 -5.1,-1.17 -21.8,-1.11 -29.2,0 -7.4,1.11 -19.4,5.6 -28.4,9.14 -9,3.54 -16.9,7.45 -25.7,11.73 -8.7,4.28 -19.9,10.46 -26.7,13.6 -6.8,3.14 -8.1,3.87 -14.1,5.54 -5.9,1.67 -14.8,3.4 -21.9,3.14 -7,-0.25 -10,-0.84 -17.02,-3.23 -7.01,-2.39 -14.59,-8.16 -20.08,-14.08 -5.49,-5.92 -8.5,-12.52 -10.71,-19.56 -2.21,-7.04 -3.44,-13.7 -3.67,-21.99 -0.23,-8.29 0.48,-9.66 -1.35,-15.89 -1.83,-6.23 -3.21,-6.92 -6.74,-9.41 -3.53,-2.49 -8.06,-3.63 -12.24,-3.95 -4.18,-0.31 -8.61,0.43 -13.37,2.59 -4.76,2.17 -8.88,5.87 -14.53,10.47 -5.65,4.6 -13.14,11.68 -18.73,15.91 -5.59,4.23 -9.66,7 -14.81,10.06 -5.16,3.06 -11.26,6.95 -15.82,8.78 -4.56,1.83 -9.34,2.6 -14.14,2.9 -4.79,0.29 -7.89,0.23 -11.53,-0.55 C 4.63,202.11 3.41,201.52 0,200 Z"/>
	<path style="fill:#0072e4;fill-opacity:1;stroke:none;" d="m 0,295 c 3.452,-2.81 5.287,-4.77 22.751,-18.1 17.464,-13.33 77.145,-58.06 84.225,-62.24 7.08,-4.18 12,-6.35 20.47,-9.41 8.47,-3.05 14.53,-2.66 18.46,-1.33 3.93,1.33 8.65,4.36 11.1,8.85 2.45,4.49 2.29,6.44 2.37,15.68 0.08,9.24 -0.17,29.34 0.23,39.25 0.4,9.91 1.27,16.37 4.84,22.18 3.57,5.81 6.65,7.96 10.11,10.11 3.46,2.15 12.19,6.45 22.47,7.87 10.28,1.42 23.44,-5.05 35.18,-8.55 11.74,-3.5 23.95,-9.6 35.23,-12.26 11.28,-2.66 22.73,-3.65 32.02,-3.89 9.29,-0.24 16.64,0.76 22.03,3.01 5.39,2.25 7.52,4.74 7.57,6.52 -5.15,-1.17 -21.82,-1.11 -29.22,0 -7.4,1.11 -19.4,5.6 -28.41,9.14 -9.01,3.54 -16.96,7.45 -25.67,11.73 -8.71,4.28 -19.91,10.46 -26.75,13.6 -6.84,3.14 -8.13,3.87 -14.07,5.54 -5.94,1.67 -14.84,3.4 -21.89,3.14 -7.04,-0.25 -10.05,-0.84 -17.06,-3.23 -7.01,-2.39 -14.59,-8.16 -20.08,-14.08 -5.49,-5.92 -8.5,-12.52 -10.71,-19.56 -2.21,-7.04 -3.44,-13.7 -3.67,-21.99 -0.23,-8.29 0.48,-9.66 -1.35,-15.89 -1.83,-6.23 -3.21,-6.92 -6.74,-9.41 -3.53,-2.49 -8.06,-3.63 -12.24,-3.95 -4.18,-0.31 -8.61,0.43 -13.37,2.59 -4.76,2.17 -8.88,5.87 -14.53,10.47 -5.65,4.6 -13.136,11.68 -18.73,15.91 -5.594,4.23 -9.659,7 -14.815,10.06 -5.156,3.06 -11.255,6.95 -15.817,8.78 -4.562,1.83 -9.337,2.6 -14.133,2.9 -4.797,0.29 -7.893,0.23 -11.535,-0.55 C 4.624,297.11 3.402,296.52 0,295 Z"/>
</svg>